<?xml version="1.0" standalone="no"?><!DOCTYPE svg PUBLIC "-//W3C//DTD SVG 1.1//EN" "http://www.w3.org/Graphics/SVG/1.1/DTD/svg11.dtd"><svg t="1699953650476" class="icon" viewBox="0 0 1024 1024" version="1.1" xmlns="http://www.w3.org/2000/svg" p-id="1222" xmlns:xlink="http://www.w3.org/1999/xlink" width="200" height="200"><path d="M0 0h1024v1024H0z" fill="#FFFFF5" p-id="1223"></path><path d="M298.666667 533.333333c0-117.76 95.573333-213.333333 213.333333-213.333333s213.333333 95.573333 213.333333 213.333333v213.333334h21.333334c23.466667 0 42.666667 19.2 42.666666 42.666666s-19.2 42.666667-42.666666 42.666667H277.333333c-23.466667 0-42.666667-19.2-42.666666-42.666667s19.2-42.666667 42.666666-42.666666h21.333334z" fill="#2ADEA5" p-id="1224"></path><path d="M471.04 565.333333H597.333333a21.333333 21.333333 0 0 1 16.64 34.666667l-85.184 106.517333a21.333333 21.333333 0 1 1-33.344-26.624l57.493334-71.893333H426.666667a21.333333 21.333333 0 0 1-16.64-34.666667l85.184-106.517333a21.333333 21.333333 0 1 1 33.344 26.624z" fill="#FFBC47" p-id="1225"></path><path d="M495.786667 192c0-8.32 6.613333-14.933333 14.933333-14.933333 8.32 0 14.933333 6.613333 14.933333 14.933333v63.573333c0 8.32-6.613333 14.933333-14.933333 14.933334-8.32 0-14.933333-6.613333-14.933333-14.933334z m-208 74.24a14.677333 14.677333 0 0 1 0-21.12c5.76-5.76 15.146667-5.76 21.12 0l45.013333 45.013333c5.76 5.76 5.76 15.36 0 21.12s-15.36 5.76-21.12 0z m437.973333 0l-45.226667 45.013333c-5.76 5.76-15.146667 5.76-20.906666 0a14.677333 14.677333 0 0 1 0-21.12l45.013333-45.013333c5.76-5.76 15.36-5.76 21.12 0s5.76 15.36 0 21.12zM192 461.653333c-8.32 0-14.933333-6.613333-14.933333-14.933333 0-8.32 6.613333-14.933333 14.933333-14.933333h63.786667c8.106667 0 14.933333 6.613333 14.933333 14.933333 0 8.32-6.826667 14.933333-14.933333 14.933333z m640 1.28h-63.786667c-8.106667 0-14.933333-6.613333-14.933333-14.933333 0-8.32 6.826667-14.933333 14.933333-14.933333H832c8.32 0 14.933333 6.613333 14.933333 14.933333 0 8.32-6.613333 14.933333-14.933333 14.933333z" fill="#2E2E38" p-id="1226"></path></svg>